<?xml version="1.0" encoding="iso-8859-1"?>
<!-- Generator: Adobe Illustrator 19.1.0, SVG Export Plug-In . SVG Version: 6.00 Build 0)  -->
<svg xmlns="http://www.w3.org/2000/svg" xmlns:xlink="http://www.w3.org/1999/xlink" version="1.1" id="Capa_1" x="0px" y="0px" viewBox="0 0 122.946 122.946" style="enable-background:new 0 0 122.946 122.946;" xml:space="preserve" width="512px" height="512px">
<g id="XMLID_62_">
	<g id="XMLID_78_">
		<path id="XMLID_470_" d="M17.584,92.236c0-2.785-0.211-5.59,0.057-8.348    c0.287-2.957-0.729-5.076-2.827-7.074C10.212,72.429,5.85,67.791,1.23,63.426c-1.698-1.604-1.588-2.551,0.024-4.085    c4.858-4.623,9.558-9.412,14.36-14.094c1.502-1.464,2.077-3.08,2.025-5.23c-0.155-6.374-0.058-12.754-0.055-19.132    c0.001-3.417,0.005-3.418,3.547-3.419c5.39-0.001,10.825-0.434,16.156,0.126c4.955,0.52,7.988-1.742,10.997-5.03    c3.562-3.892,7.424-7.508,11.077-11.32c1.46-1.523,2.645-1.655,4.172-0.086c4.679,4.808,9.492,9.485,14.129,14.332    c1.28,1.338,2.514,2.036,4.404,2.01c6.915-0.093,13.834,0.039,20.749-0.08c2.271-0.039,2.934,0.746,2.896,2.959    c-0.118,6.825,0.029,13.654-0.088,20.479c-0.033,1.891,0.59,3.262,1.866,4.513c4.79,4.697,9.537,9.438,14.357,14.105    c1.503,1.455,1.453,2.552-0.057,4.022c-4.882,4.754-9.615,9.662-14.489,14.425c-1.188,1.161-1.689,2.32-1.668,3.991    c0.089,6.916-0.056,13.835,0.083,20.749c0.047,2.338-0.836,2.926-2.987,2.898c-6.826-0.091-13.654,0.012-20.48-0.066    c-1.735-0.02-2.998,0.417-4.25,1.715c-4.732,4.907-9.636,9.648-14.408,14.517c-1.388,1.416-2.373,1.698-3.932,0.084    c-4.795-4.965-9.806-9.721-14.617-14.672c-1.187-1.222-2.369-1.656-4.005-1.64c-6.826,0.068-13.655-0.06-20.479,0.084    c-2.415,0.051-3.138-0.769-3.018-3.108C17.714,99.069,17.584,95.649,17.584,92.236z M91.741,41.57    c0-3.527-0.088-5.957,0.031-8.377c0.08-1.64-0.443-2.184-2.12-2.139c-4.22,0.112-8.451-0.106-12.665,0.094    c-2.432,0.115-4.015-0.887-5.583-2.535c-2.891-3.039-5.974-5.896-8.901-8.903c-0.85-0.873-1.285-0.793-2.102,0.048    c-2.865,2.948-5.913,5.721-8.724,8.717c-1.627,1.735-3.238,2.819-5.793,2.676c-4.03-0.225-8.085,0.024-12.125-0.099    c-1.849-0.056-2.531,0.462-2.476,2.396c0.127,4.489,0.02,8.983,0.057,13.475c0.01,1.221-0.244,2.117-1.233,3.044    c-3.459,3.245-6.76,6.66-10.112,10.019c-0.793,0.795-1.449,1.479-0.241,2.635c3.432,3.285,6.682,6.761,10.136,10.021    c1.104,1.042,1.477,2.069,1.455,3.511c-0.068,4.401,0.097,8.809-0.073,13.205c-0.082,2.112,0.647,2.546,2.601,2.484    c4.488-0.144,8.984-0.006,13.475-0.069c1.279-0.018,2.149,0.412,3.034,1.33c3.294,3.42,6.733,6.7,10.01,10.134    c0.992,1.04,1.474,0.768,2.318-0.096c3.26-3.339,6.641-6.56,9.869-9.929c1.033-1.078,2.078-1.471,3.533-1.445    c4.401,0.078,8.81-0.107,13.204,0.086c2.142,0.094,2.524-0.665,2.466-2.58c-0.131-4.309,0.018-8.625-0.072-12.936    c-0.032-1.554,0.388-2.699,1.525-3.79c3.301-3.168,6.446-6.499,9.762-9.65c1.162-1.104,1.043-1.898,0.035-2.878    c-1.413-1.374-2.744-2.842-4.236-4.122C94.055,51.828,89.646,47.649,91.741,41.57z" fill="#d4e5e5"/>
		<path id="XMLID_412_" d="M61.006,97.686c-3.034-3.354-5.997-6.592-8.912-9.873    c-0.855-0.962-1.833-1.245-3.093-1.219c-3.5,0.075-7.006-0.058-10.504,0.066c-1.831,0.065-2.537-0.436-2.45-2.383    c0.153-3.405-0.066-6.827,0.087-10.232c0.082-1.815-0.639-3.056-1.843-4.224c-2.442-2.367-4.791-4.835-7.303-7.125    c-1.152-1.05-0.87-1.738,0.043-2.624c2.504-2.429,4.942-4.928,7.496-7.302c1.145-1.064,1.642-2.191,1.594-3.767    c-0.103-3.409,0.125-6.833-0.087-10.232c-0.14-2.241,0.699-2.673,2.711-2.586c3.495,0.152,7.003-0.006,10.503,0.067    c1.27,0.026,2.125-0.355,3.013-1.308c2.376-2.552,5.008-4.867,7.356-7.443c1.479-1.622,2.528-1.28,3.838,0.089    c2.349,2.453,4.86,4.756,7.135,7.274c0.953,1.054,1.893,1.412,3.242,1.386c3.68-0.069,7.364,0.045,11.043-0.058    c1.543-0.043,1.985,0.462,1.945,1.973c-0.098,3.679,0.012,7.363-0.053,11.043c-0.024,1.368,0.419,2.38,1.407,3.314    c2.598,2.458,5.092,5.025,7.696,7.476c1.187,1.117,1.202,1.838-0.08,2.988c-2.595,2.328-4.99,4.879-7.476,7.329    c-1.068,1.053-1.618,2.22-1.562,3.812c0.122,3.498-0.023,7.004,0.066,10.504c0.039,1.504-0.415,2.067-1.97,2.009    c-2.78-0.103-5.598,0.244-8.341-0.086c-3.328-0.399-5.615,0.977-7.733,3.242C66.461,92.27,64.028,94.629,61.006,97.686z     M49.904,56.788c-1.249,0-1.902,0.12-2.494-0.02c-3.533-0.834-5.662,1.451-7.898,3.492c-0.724,0.661-1.11,1.32-0.136,2.222    c2.233,2.068,4.278,4.378,7.847,3.573c0.694-0.157,1.588-0.322,2.445,0.388c-0.778,1.203-1.72,2.219-2.802,3.135    c-1.355,1.146-2.397,6.23-1.589,7.719c0.112,0.207,0.396,0.507,0.546,0.478c2.354-0.453,4.919,0.756,7.124-1.227    c1.173-1.054,2.044-2.612,3.91-3.238c0.039,0.787,0.169,1.326,0.075,1.822c-0.708,3.736,1.099,6.311,3.745,8.609    c0.741,0.644,1.005,0.589,1.67-0.045c2.456-2.342,4.701-4.711,3.86-8.55c-0.115-0.526-0.284-1.256,0.371-1.723    c0.87,0.024,1.213,0.783,1.548,1.315c2.072,3.295,5.412,2.94,8.582,3.11c1.253,0.067,1.155-0.718,1.098-1.6    c-0.207-3.195,0.029-6.529-3.401-8.458c-0.419-0.235-1.055-0.742-0.655-1.823c3.529,0.427,6.925,0.15,9.478-3.039    c0.91-1.137,1.238-1.789,0.117-2.82c-2.174-1.998-4.227-4.157-7.668-3.373c-0.633,0.144-1.592,0.477-2.306-0.648    c3.22-2.217,4.743-5.254,4.455-9.252c-0.086-1.19-0.259-1.474-1.408-1.579c-3.488-0.319-6.564,0.173-8.63,3.423    c-0.284,0.446-0.689,1.138-1.612,0.723c0-1.115-0.125-2.29,0.023-3.43c0.454-3.481-2.282-4.973-4.209-6.978    c-0.425-0.443-0.821-0.213-1.139,0.126c-1.918,2.044-4.481,3.684-3.957,7.156c0.155,1.03,0.428,2.267-0.336,3.294    c-1.141-0.374-1.632-1.26-2.282-1.992c-1.785-2.011-5.964-3.079-8.342-2.283c-0.875,0.293-0.724,0.893-0.731,1.483    c-0.033,2.744-0.557,5.614,2.519,7.367C48.489,54.583,48.934,55.579,49.904,56.788z" fill="#d4e5e5"/>
		<path id="XMLID_387_" d="M62.273,72.193c-6.369,0.011-11.703-4.3-11.534-9.045    c0.097-2.721-1.163-5.818,1.756-7.982c2.399-1.779,3.683-5.358,7.623-4.612c2.356,0.446,5.115-1.085,7.059,1.351    c1.91,2.393,5.464,3.657,5.023,7.68c-0.339,3.093,0.855,6.456-2.3,8.908C67.412,70.427,65.593,73.623,62.273,72.193z" fill="#d4e5e5"/>
	</g>
</g>
<g>
</g>
<g>
</g>
<g>
</g>
<g>
</g>
<g>
</g>
<g>
</g>
<g>
</g>
<g>
</g>
<g>
</g>
<g>
</g>
<g>
</g>
<g>
</g>
<g>
</g>
<g>
</g>
<g>
</g>
</svg>
